<svg xmlns="http://www.w3.org/2000/svg" width="45" height="45" viewBox="0 0 45 45" fill="none">
  <g clip-path="url(#clip0_122_51)">
    <path d="M45.0001 21.5626C44.9956 20.2984 44.7056 19.0516 44.1517 17.9153C43.5978 16.7789 42.7943 15.7824 41.8013 15.0001C43.1751 13.9171 44.1766 12.4323 44.6661 10.7529C45.1556 9.07346 45.1087 7.28311 44.5319 5.63161C43.9551 3.98012 42.8772 2.54983 41.4486 1.5403C40.02 0.530761 38.3119 -0.00768176 36.5626 8.28095e-05H8.4376C6.68829 -0.00768176 4.98019 0.530761 3.55157 1.5403C2.12294 2.54983 1.04506 3.98012 0.468271 5.63161C-0.108515 7.28311 -0.155432 9.07346 0.334065 10.7529C0.823562 12.4323 1.82506 13.9171 3.19885 15.0001C2.20237 15.7793 1.39642 16.7752 0.842135 17.9122C0.287849 19.0493 -0.000218674 20.2976 -0.000218674 21.5626C-0.000218674 22.8275 0.287849 24.0759 0.842135 25.2129C1.39642 26.35 2.20237 27.3459 3.19885 28.1251C1.82506 29.2081 0.823562 30.6928 0.334065 32.3723C-0.155432 34.0517 -0.108515 35.8421 0.468271 37.4936C1.04506 39.145 2.12294 40.5753 3.55157 41.5849C4.98019 42.5944 6.68829 43.1328 8.4376 43.1251H36.5626C38.3119 43.1328 40.02 42.5944 41.4486 41.5849C42.8772 40.5753 43.9551 39.145 44.5319 37.4936C45.1087 35.8421 45.1556 34.0517 44.6661 32.3723C44.1766 30.6928 43.1751 29.2081 41.8013 28.1251C42.7943 27.3428 43.5978 26.3462 44.1517 25.2099C44.7056 24.0735 44.9956 22.8267 45.0001 21.5626ZM3.7501 8.43758C3.7501 7.19438 4.24396 6.0021 5.12303 5.12302C6.00211 4.24394 7.19439 3.75008 8.4376 3.75008H9.3751V5.62508C9.3751 6.12236 9.57264 6.59928 9.92427 6.95091C10.2759 7.30254 10.7528 7.50008 11.2501 7.50008C11.7474 7.50008 12.2243 7.30254 12.5759 6.95091C12.9276 6.59928 13.1251 6.12236 13.1251 5.62508V3.75008H16.8751V5.62508C16.8751 6.12236 17.0726 6.59928 17.4243 6.95091C17.7759 7.30254 18.2528 7.50008 18.7501 7.50008C19.2474 7.50008 19.7243 7.30254 20.0759 6.95091C20.4276 6.59928 20.6251 6.12236 20.6251 5.62508V3.75008H36.5626C37.8058 3.75008 38.9981 4.24394 39.8772 5.12302C40.7562 6.0021 41.2501 7.19438 41.2501 8.43758C41.2501 9.68079 40.7562 10.8731 39.8772 11.7521C38.9981 12.6312 37.8058 13.1251 36.5626 13.1251H8.4376C7.19439 13.1251 6.00211 12.6312 5.12303 11.7521C4.24396 10.8731 3.7501 9.68079 3.7501 8.43758V8.43758ZM41.2501 34.6876C41.2501 35.9308 40.7562 37.1231 39.8772 38.0021C38.9981 38.8812 37.8058 39.3751 36.5626 39.3751H8.4376C7.19439 39.3751 6.00211 38.8812 5.12303 38.0021C4.24396 37.1231 3.7501 35.9308 3.7501 34.6876C3.7501 33.4444 4.24396 32.2521 5.12303 31.373C6.00211 30.4939 7.19439 30.0001 8.4376 30.0001H9.3751V31.8751C9.3751 32.3724 9.57264 32.8493 9.92427 33.2009C10.2759 33.5525 10.7528 33.7501 11.2501 33.7501C11.7474 33.7501 12.2243 33.5525 12.5759 33.2009C12.9276 32.8493 13.1251 32.3724 13.1251 31.8751V30.0001H16.8751V31.8751C16.8751 32.3724 17.0726 32.8493 17.4243 33.2009C17.7759 33.5525 18.2528 33.7501 18.7501 33.7501C19.2474 33.7501 19.7243 33.5525 20.0759 33.2009C20.4276 32.8493 20.6251 32.3724 20.6251 31.8751V30.0001H36.5626C37.8058 30.0001 38.9981 30.4939 39.8772 31.373C40.7562 32.2521 41.2501 33.4444 41.2501 34.6876ZM8.4376 26.2501C7.19439 26.2501 6.00211 25.7562 5.12303 24.8771C4.24396 23.9981 3.7501 22.8058 3.7501 21.5626C3.7501 20.3194 4.24396 19.1271 5.12303 18.248C6.00211 17.3689 7.19439 16.8751 8.4376 16.8751H9.3751V18.7501C9.3751 19.2474 9.57264 19.7243 9.92427 20.0759C10.2759 20.4275 10.7528 20.6251 11.2501 20.6251C11.7474 20.6251 12.2243 20.4275 12.5759 20.0759C12.9276 19.7243 13.1251 19.2474 13.1251 18.7501V16.8751H16.8751V18.7501C16.8751 19.2474 17.0726 19.7243 17.4243 20.0759C17.7759 20.4275 18.2528 20.6251 18.7501 20.6251C19.2474 20.6251 19.7243 20.4275 20.0759 20.0759C20.4276 19.7243 20.6251 19.2474 20.6251 18.7501V16.8751H36.5626C37.8058 16.8751 38.9981 17.3689 39.8772 18.248C40.7562 19.1271 41.2501 20.3194 41.2501 21.5626C41.2501 22.8058 40.7562 23.9981 39.8772 24.8771C38.9981 25.7562 37.8058 26.2501 36.5626 26.2501H8.4376Z" fill="#333333"/>
  </g>
  <defs>
    <clipPath id="clip0_122_51">
      <rect width="45" height="45" fill="white"/>
    </clipPath>
  </defs>
</svg>