<svg xmlns="http://www.w3.org/2000/svg" width="51" height="50" viewBox="0 0 51 50" fill="none">
  <path d="M25.8034 50C39.6696 50 50.9103 38.8071 50.9103 25C50.9103 11.1929 39.6696 0 25.8034 0C11.9373 0 0.696594 11.1929 0.696594 25C0.696594 38.8071 11.9373 50 25.8034 50Z" fill="#8B5D33"/>
  <path d="M22.0421 12.2727C19.1961 12.2727 16.1576 13.204 13.8145 15.4584C11.4375 17.7454 10.0546 21.1245 10.0546 25.4732C10.0546 29.9309 11.6539 33.1555 14.2042 35.1998C16.648 37.1586 19.6359 37.7708 22.0421 37.7708H41.6273V32.3163H22.0421C20.4587 32.3163 18.8223 31.8992 17.6392 30.9509C16.8674 30.3322 16.1194 29.3549 15.7578 27.7257L41.6273 27.7257V22.2712L15.9467 22.2712C16.3343 20.95 16.9525 20.024 17.6209 19.381C18.7687 18.2767 20.3545 17.7273 22.0421 17.7273H41.6273V12.2727H22.0421Z" fill="#FFEDBC"/>
  <path d="M38.5462 26.8318L37.2955 26.5209L37.6753 25.0053L41.5747 25.9756L40.6018 29.8584L39.0781 29.4803L39.4155 28.1334L25.4937 36.7162L10.0546 29.0349V23.1724L26.0979 13.1818L40.8089 20.3271V22.7396L25.4953 32.2131L14.1235 26.599L14.8202 25.199L25.4106 30.4271L39.2397 21.8709V21.3037L26.192 14.9662L11.6253 24.0381V28.0693L25.4137 34.9287L38.5462 26.8318Z" fill="#FFEDBC"/>
</svg>