<svg xmlns="http://www.w3.org/2000/svg" width="45" height="45" viewBox="0 0 45 45" fill="none">
  <path d="M3.75 39.375V5.625C3.75 5.12772 3.94754 4.65081 4.29917 4.29917C4.65081 3.94754 5.12772 3.75 5.625 3.75H15V0H5.625C4.13316 0 2.70242 0.592632 1.64752 1.64752C0.592632 2.70242 0 4.13316 0 5.625L0 39.375C0 40.8668 0.592632 42.2976 1.64752 43.3525C2.70242 44.4074 4.13316 45 5.625 45H15V41.25H5.625C5.12772 41.25 4.65081 41.0525 4.29917 40.7008C3.94754 40.3492 3.75 39.8723 3.75 39.375V39.375Z" fill="#333333"/>
  <path d="M43.355 18.522L34.7563 9.92322L32.105 12.5745L40.1 20.5695L9.37439 20.6238V24.3738L40.205 24.3195L32.1013 32.4232L34.7525 35.0745L43.3513 26.4757C44.4063 25.4214 44.9994 23.9912 45.0001 22.4996C45.0008 21.0081 44.409 19.5773 43.355 18.522Z" fill="#333333"/>
</svg>