<svg width="45" height="45" viewBox="0 0 45 45" fill="none" xmlns="http://www.w3.org/2000/svg">
<g clip-path="url(#clip0_122_55)">
<path d="M43.9147 31.0914L37.7441 24.9208C37.5721 24.7377 37.3651 24.591 37.1353 24.4894C36.9055 24.3878 36.6576 24.3335 36.4064 24.3296C36.1552 24.3257 35.9058 24.3723 35.6729 24.4667C35.4401 24.5611 35.2286 24.7013 35.051 24.879C34.8734 25.0567 34.7334 25.2683 34.6391 25.5012C34.5449 25.7341 34.4985 25.9836 34.5026 26.2348C34.5066 26.486 34.5612 26.7338 34.6629 26.9635C34.7646 27.1933 34.9115 27.4002 35.0947 27.5721L39.3885 31.8733C37.0544 31.8786 34.7428 31.4169 32.5898 30.5152C30.4368 29.6136 28.486 28.2903 26.8523 26.6233C26.6708 26.4562 26.4577 26.3273 26.2255 26.2442C25.9933 26.1611 25.7467 26.1255 25.5005 26.1394C25.2543 26.1534 25.0133 26.2168 24.7921 26.3256C24.5708 26.4345 24.3736 26.5868 24.2123 26.7733L24.1879 26.8108C23.8726 27.1775 23.7113 27.6518 23.7375 28.1347C23.7637 28.6176 23.9754 29.0716 24.3285 29.4021C26.2969 31.3927 28.6441 32.9689 31.2317 34.0374C33.8193 35.1059 36.5947 35.6452 39.3941 35.6233L35.0947 39.9227C34.8988 40.0912 34.7399 40.2984 34.6278 40.5312C34.5158 40.7641 34.4531 41.0176 34.4437 41.2758C34.4342 41.5341 34.4783 41.7915 34.5731 42.0319C34.6679 42.2723 34.8113 42.4905 34.9944 42.6728C35.1775 42.8552 35.3964 42.9977 35.6372 43.0914C35.878 43.1852 36.1355 43.2282 36.3937 43.2176C36.6519 43.2071 36.9052 43.1434 37.1376 43.0303C37.3699 42.9173 37.5764 42.7574 37.7441 42.5608L43.9147 36.3902C44.6166 35.6871 45.0108 34.7343 45.0108 33.7408C45.0108 32.7474 44.6166 31.7945 43.9147 31.0914V31.0914Z" fill="#333333"/>
<path d="M39.3882 13.1241L35.0944 17.4179C35.0579 17.4672 35.0241 17.5186 34.9932 17.5716C34.6906 17.9406 34.5414 18.4116 34.5763 18.8875C34.6113 19.3633 34.8278 19.8075 35.181 20.1282C35.5342 20.449 35.9972 20.6217 36.4742 20.6107C36.9512 20.5997 37.4057 20.4058 37.7438 20.0691L40.9426 16.8741L43.9163 13.9023C44.4191 13.3956 44.7668 12.7559 44.9186 12.0584C45.0704 11.3609 45.0199 10.6346 44.7732 9.96477C44.591 9.45205 44.2978 8.98593 43.9144 8.59977L37.7438 2.43665C37.5726 2.25066 37.3656 2.10121 37.1352 1.99728C36.9048 1.89334 36.6558 1.83706 36.4031 1.83182C36.1503 1.82659 35.8992 1.8725 35.6647 1.96681C35.4301 2.06111 35.2171 2.20186 35.0384 2.3806C34.8597 2.55933 34.7189 2.77235 34.6246 3.00687C34.5303 3.24138 34.4844 3.49255 34.4896 3.74526C34.4949 3.99797 34.5511 4.24702 34.6551 4.47742C34.759 4.70783 34.9085 4.91485 35.0944 5.08602L39.3938 9.38352C30.1444 9.40602 25.0745 14.3973 20.477 19.6473C16.2545 14.881 11.2501 10.1241 2.78823 9.4604L1.88636 9.37415C1.38908 9.37415 0.912165 9.57169 0.560534 9.92332C0.208904 10.275 0.0113602 10.7519 0.0113602 11.2491C0.0209604 11.7434 0.221586 12.2148 0.571157 12.5644C0.920728 12.9139 1.39208 13.1145 1.88636 13.1241C2.02136 13.1241 2.42448 13.186 2.42448 13.186C9.72947 13.7391 13.922 17.8529 18.0001 22.4991C13.9463 27.1229 9.78197 31.3116 2.53698 31.7991L1.78698 31.8385C1.29343 31.8694 0.832344 32.095 0.505152 32.4658C0.17796 32.8366 0.0114663 33.3222 0.0422976 33.8157C0.073129 34.3093 0.29876 34.7704 0.669554 35.0975C1.04035 35.4247 1.52593 35.5912 2.01948 35.5604C2.31198 35.5473 2.78823 35.536 3.02261 35.5173C12.4351 34.7916 17.5407 28.7673 22.0932 23.5004C26.6907 18.1866 31.0332 13.1579 39.3882 13.1241Z" fill="#333333"/>
</g>
<defs>
<clipPath id="clip0_122_55">
<rect width="45" height="45" fill="white"/>
</clipPath>
</defs>
</svg>
