<svg xmlns="http://www.w3.org/2000/svg" width="45" height="45" viewBox="0 0 45 45" fill="none">
  <g clip-path="url(#clip0_2_31)">
    <path d="M2.45422 44.3637H42.4542V6.18184C42.4542 4.73521 41.8796 3.34782 40.8566 2.32489C39.8337 1.30197 38.4463 0.727295 36.9997 0.727295L7.90877 0.727295C6.46213 0.727295 5.07475 1.30197 4.05182 2.32489C3.0289 3.34782 2.45422 4.73521 2.45422 6.18184V44.3637ZM6.09059 6.18184C6.09059 5.69963 6.28215 5.23717 6.62312 4.89619C6.9641 4.55522 7.42656 4.36366 7.90877 4.36366H36.9997C37.4819 4.36366 37.9444 4.55522 38.2853 4.89619C38.6263 5.23717 38.8179 5.69963 38.8179 6.18184V40.7273H6.09059V6.18184ZM9.72695 18.9091H35.1815V8.00002H9.72695V18.9091ZM13.3633 11.6364H31.5451V15.2727H13.3633V11.6364ZM9.72695 24.3637H13.3633V28H9.72695V24.3637ZM16.9997 24.3637H20.636V28H16.9997V24.3637ZM27.9088 24.3637V28H24.2724V24.3637H27.9088ZM9.72695 31.6364H13.3633V35.2728H9.72695V31.6364ZM16.9997 31.6364H20.636V35.2728H16.9997V31.6364ZM31.5451 24.3637H35.1815V28H31.5451V24.3637ZM24.2724 31.6364H35.1815V35.2728H24.2724V31.6364Z" fill="#333333"/>
  </g>
  <defs>
    <clipPath id="clip0_2_31">
      <rect width="43.6364" height="43.6364" fill="white" transform="translate(0.636353 0.727295)"/>
    </clipPath>
  </defs>
</svg>