<svg xmlns="http://www.w3.org/2000/svg" width="46" height="45" viewBox="0 0 46 45" fill="none">
  <g clip-path="url(#clip0_122_44)">
    <path d="M36.125 7.5H28.625V5.625C28.625 4.13316 28.0324 2.70242 26.9775 1.64752C25.9226 0.592632 24.4918 0 23 0C21.5082 0 20.0774 0.592632 19.0225 1.64752C17.9676 2.70242 17.375 4.13316 17.375 5.625V7.5H9.875C7.38951 7.50298 5.00667 8.49165 3.24916 10.2492C1.49165 12.0067 0.502977 14.3895 0.5 16.875L0.5 35.625C0.502977 38.1105 1.49165 40.4933 3.24916 42.2508C5.00667 44.0083 7.38951 44.997 9.875 45H36.125C38.6105 44.997 40.9933 44.0083 42.7508 42.2508C44.5083 40.4933 45.497 38.1105 45.5 35.625V16.875C45.497 14.3895 44.5083 12.0067 42.7508 10.2492C40.9933 8.49165 38.6105 7.50298 36.125 7.5V7.5ZM21.125 5.625C21.125 5.12772 21.3225 4.65081 21.6742 4.29917C22.0258 3.94754 22.5027 3.75 23 3.75C23.4973 3.75 23.9742 3.94754 24.3258 4.29917C24.6775 4.65081 24.875 5.12772 24.875 5.625V9.375C24.875 9.87228 24.6775 10.3492 24.3258 10.7008C23.9742 11.0525 23.4973 11.25 23 11.25C22.5027 11.25 22.0258 11.0525 21.6742 10.7008C21.3225 10.3492 21.125 9.87228 21.125 9.375V5.625ZM41.75 35.625C41.75 37.1168 41.1574 38.5476 40.1025 39.6025C39.0476 40.6574 37.6168 41.25 36.125 41.25H9.875C8.38316 41.25 6.95242 40.6574 5.89752 39.6025C4.84263 38.5476 4.25 37.1168 4.25 35.625V16.875C4.25 15.3832 4.84263 13.9524 5.89752 12.8975C6.95242 11.8426 8.38316 11.25 9.875 11.25H17.72C18.1018 12.346 18.8153 13.2961 19.7614 13.9683C20.7075 14.6406 21.8394 15.0018 23 15.0018C24.1606 15.0018 25.2925 14.6406 26.2386 13.9683C27.1847 13.2961 27.8982 12.346 28.28 11.25H36.125C37.6168 11.25 39.0476 11.8426 40.1025 12.8975C41.1574 13.9524 41.75 15.3832 41.75 16.875V35.625ZM19.25 18.75H9.875C9.37772 18.75 8.90081 18.9475 8.54918 19.2992C8.19754 19.6508 8 20.1277 8 20.625V35.625C8 36.1223 8.19754 36.5992 8.54918 36.9508C8.90081 37.3025 9.37772 37.5 9.875 37.5H19.25C19.7473 37.5 20.2242 37.3025 20.5758 36.9508C20.9275 36.5992 21.125 36.1223 21.125 35.625V20.625C21.125 20.1277 20.9275 19.6508 20.5758 19.2992C20.2242 18.9475 19.7473 18.75 19.25 18.75ZM17.375 33.75H11.75V22.5H17.375V33.75ZM38 28.125C38 28.6223 37.8025 29.0992 37.4508 29.4508C37.0992 29.8025 36.6223 30 36.125 30H26.75C26.2527 30 25.7758 29.8025 25.4242 29.4508C25.0725 29.0992 24.875 28.6223 24.875 28.125C24.875 27.6277 25.0725 27.1508 25.4242 26.7992C25.7758 26.4475 26.2527 26.25 26.75 26.25H36.125C36.6223 26.25 37.0992 26.4475 37.4508 26.7992C37.8025 27.1508 38 27.6277 38 28.125ZM38 20.625C38 21.1223 37.8025 21.5992 37.4508 21.9508C37.0992 22.3025 36.6223 22.5 36.125 22.5H26.75C26.2527 22.5 25.7758 22.3025 25.4242 21.9508C25.0725 21.5992 24.875 21.1223 24.875 20.625C24.875 20.1277 25.0725 19.6508 25.4242 19.2992C25.7758 18.9475 26.2527 18.75 26.75 18.75H36.125C36.6223 18.75 37.0992 18.9475 37.4508 19.2992C37.8025 19.6508 38 20.1277 38 20.625ZM34.25 35.625C34.25 36.1223 34.0525 36.5992 33.7008 36.9508C33.3492 37.3025 32.8723 37.5 32.375 37.5H26.75C26.2527 37.5 25.7758 37.3025 25.4242 36.9508C25.0725 36.5992 24.875 36.1223 24.875 35.625C24.875 35.1277 25.0725 34.6508 25.4242 34.2992C25.7758 33.9475 26.2527 33.75 26.75 33.75H32.375C32.8723 33.75 33.3492 33.9475 33.7008 34.2992C34.0525 34.6508 34.25 35.1277 34.25 35.625Z" fill="#333333"/>
  </g>
  <defs>
    <clipPath id="clip0_122_44">
      <rect width="45" height="45" fill="white" transform="translate(0.5)"/>
    </clipPath>
  </defs>
</svg>