<svg xmlns="http://www.w3.org/2000/svg" width="47" height="47" viewBox="0 0 47 47" fill="none">
  <g clip-path="url(#clip0_2_39)">
    <path d="M6.38635 42.757C5.87802 42.757 5.39051 42.5551 5.03106 42.1956C4.67162 41.8362 4.46969 41.3487 4.46969 40.8404V0.636353H0.636353V40.8404C0.636353 42.3653 1.24215 43.8279 2.32049 44.9062C3.39882 45.9846 4.86136 46.5904 6.38635 46.5904H46.6364V42.757H6.38635Z" fill="#333333"/>
    <path d="M14.0533 23.6364H10.22V37.053H14.0533V23.6364Z" fill="#333333"/>
    <path d="M23.6361 19.8027H19.8027V37.0527H23.6361V19.8027Z" fill="#333333"/>
    <path d="M33.2197 25.5527H29.3864V37.0527H33.2197V25.5527Z" fill="#333333"/>
    <path d="M42.8034 17.8864H38.97V37.053H42.8034V17.8864Z" fill="#333333"/>
    <path d="M21.7194 9.09683L31.3028 18.6802L46.0745 3.90841L43.3643 1.19824L31.3028 13.2598L21.7194 3.67649L10.781 14.6149L13.4912 17.3251L21.7194 9.09683Z" fill="#333333"/>
  </g>
  <defs>
    <clipPath id="clip0_2_39">
      <rect width="46" height="46" fill="white" transform="translate(0.636353 0.636353)"/>
    </clipPath>
  </defs>
</svg>